<?xml version="1.0" encoding="UTF-8"?>
<!DOCTYPE svg PUBLIC "-//W3C//DTD SVG 1.1//EN" "http://www.w3.org/Graphics/SVG/1.1/DTD/svg11.dtd">
<!-- Creator: CorelDRAW X6 -->
<svg xmlns="http://www.w3.org/2000/svg" xml:space="preserve" width="57.658mm" height="13.716mm" version="1.1" style="shape-rendering:geometricPrecision; text-rendering:geometricPrecision; image-rendering:optimizeQuality; fill-rule:evenodd; clip-rule:evenodd"
viewBox="0 0 5766 1372"
 xmlns:xlink="http://www.w3.org/1999/xlink">
 <defs>
  <style type="text/css">
   <![CDATA[
    .str0 {stroke:#E31E25;stroke-width:7.62}
    .fil2 {fill:#E31E25}
    .fil1 {fill:#FEFEFE}
    .fil0 {fill:#59B039;fill-rule:nonzero}
   ]]>
  </style>
 </defs>
 <g id="Слой_x0020_1">
  <metadata id="CorelCorpID_0Corel-Layer"/>
  <g id="_765753968">
   <path class="fil0" d="M2437 922c0,17 -6,32 -19,45 -13,12 -29,19 -49,19 -20,0 -36,-6 -49,-19 -13,-12 -19,-27 -19,-45l0 -313 -228 319c-15,21 -28,36 -40,44 -12,8 -27,13 -44,13 -20,0 -37,-6 -49,-19 -12,-13 -19,-28 -19,-46l0 -480c0,-17 6,-32 19,-45 13,-12 29,-19 49,-19 20,0 36,6 49,19 13,12 19,27 19,45l0 313 227 -319c16,-22 30,-37 41,-45 12,-8 26,-12 42,-12 21,0 38,6 51,18 12,12 19,28 19,47l0 480z"/>
   <path class="fil0" d="M3993 855c17,0 32,6 45,19 12,12 19,27 19,45 0,17 -6,32 -19,45 -12,12 -27,19 -45,19l-249 0c-17,0 -32,-6 -45,-19 -12,-12 -19,-27 -19,-45l0 -473c0,-17 6,-32 19,-45 13,-12 29,-19 49,-19 20,0 36,6 49,19 13,12 19,27 19,45l0 410 177 0z"/>
   <path class="fil1 str0" d="M3060 356c46,-52 105,-90 174,-104 62,-12 127,-3 182,28 118,66 148,198 119,323 -47,200 -263,431 -448,513 -22,10 -35,10 -57,0 -185,-82 -401,-314 -448,-513 -32,-138 16,-274 151,-332 117,-50 250,-17 327,85z"/>
   <path class="fil2" d="M3054 441c-97,103 -188,192 -404,149l0 0c-39,-11 -22,87 61,99l0 0c448,74 414,-226 645,-351l0 0c31,-23 -21,-43 -42,-46l0 0c-8,-1 -16,-2 -24,-2l0 0c-92,0 -167,76 -237,150zm-435 51c-3,25 -10,76 26,82l0 0 0 0c213,41 302,-70 402,-175l0 0c-57,-75 -134,-109 -206,-109l0 0c-108,0 -207,75 -221,202zm763 -116c-216,111 -228,434 -684,325l0 0c-47,-12 -7,82 67,99l0 0c417,92 460,-162 691,-352l0 0c35,-29 -1,-79 -46,-79l0 0c-9,0 -19,2 -28,7zm68 133c-139,143 -228,268 -373,313l0 0c-74,23 -167,25 -297,-3l0 0c-49,-11 1,65 73,80l0 0c114,19 233,5 338,-34l0 0c141,-52 303,-190 306,-341l0 0c-1,-19 -9,-29 -20,-29l0 0c-8,0 -17,5 -26,14zm-118 323c-167,95 -270,114 -459,87l0 0c-37,-6 -31,19 -3,35l0 0c167,95 393,43 494,-109l0 0c19,-28 21,-37 15,-37l0 0c-7,0 -26,13 -48,25zm-383 192c18,16 81,60 122,59l0 0c22,0 56,-23 78,-38l0 0c3,-2 7,-5 10,-7l0 0c13,-10 3,-15 -5,-14l0 0c-80,8 -134,-1 -193,-19l0 0c-7,-2 -12,-3 -16,-3l0 0c-12,0 -9,10 5,22l0 0z"/>
   <path class="fil0" d="M4439 988c-45,0 -87,-7 -125,-21 -38,-14 -72,-34 -100,-61 -28,-26 -50,-59 -66,-96 -16,-38 -24,-80 -24,-128 0,-43 8,-83 23,-120 15,-37 36,-70 64,-97 27,-28 60,-49 99,-65 39,-16 82,-24 129,-24 45,0 87,7 125,21 38,14 72,34 100,61 28,26 50,59 66,96 16,38 24,80 24,128 0,45 -8,86 -24,124 -16,37 -38,70 -66,97 -28,27 -61,48 -100,63 -38,15 -80,22 -125,22zm0 -485c-25,0 -48,4 -68,13 -21,8 -39,21 -54,36 -15,16 -27,35 -36,57 -8,22 -13,46 -13,74 0,25 5,49 14,71 9,22 21,41 36,57 15,16 33,29 54,38 21,9 43,14 67,14 28,0 53,-5 74,-14 21,-9 39,-22 53,-38 14,-16 25,-35 33,-57 7,-22 11,-45 11,-70 0,-27 -4,-52 -13,-74 -9,-22 -21,-41 -36,-57 -16,-16 -34,-28 -55,-36 -21,-8 -43,-13 -67,-13z"/>
   <path class="fil0" d="M4821 443c0,-17 6,-33 18,-46 12,-13 28,-20 48,-20 14,0 27,4 38,12 12,8 20,18 24,31l136 356 129 -356c5,-13 13,-23 24,-31 12,-8 24,-12 38,-12 18,0 33,6 44,18 12,12 17,26 17,43 0,6 -1,14 -4,22l-183 468c-9,23 -19,38 -31,46 -12,8 -25,12 -40,12 -17,0 -32,-4 -42,-13 -11,-8 -21,-24 -30,-46l-183 -460c-2,-5 -3,-9 -3,-12 -1,-4 -1,-8 -1,-12z"/>
   <path class="fil0" d="M5702 851c17,0 32,6 45,19 12,12 19,27 19,45 0,17 -6,32 -19,45 -12,12 -27,19 -45,19l-232 0c-17,0 -32,-6 -45,-19 -12,-12 -19,-27 -19,-45l0 -465c0,-17 6,-32 19,-45 12,-12 27,-19 45,-19l224 0c17,0 32,6 45,19 12,12 19,27 19,45 0,17 -6,32 -19,45 -12,12 -27,19 -45,19l-152 0 0 104 127 0c17,0 32,6 45,19 12,12 19,27 19,45 0,17 -6,32 -19,45 -12,12 -27,19 -45,19l-127 0 0 107 161 0z"/>
   <path class="fil0" d="M1686 445c0,-17 6,-32 19,-45 13,-12 29,-19 49,-19 20,0 36,6 49,19 13,12 19,27 19,45l0 473c0,17 -6,32 -19,45 -12,12 -27,19 -45,19l-566 0c-17,0 -32,-6 -45,-19 -12,-12 -19,-27 -19,-45l0 -473c0,-17 6,-32 19,-45 13,-12 29,-19 49,-19 20,0 36,6 49,19 13,12 19,27 19,45l0 410 144 0 0 -410c0,-17 6,-32 19,-45 13,-12 29,-19 49,-19 20,0 36,6 49,19 13,12 19,27 19,45l0 410 144 0 0 -410z"/>
   <path class="fil0" d="M554 439c0,-17 6,-32 19,-44 13,-12 28,-18 46,-18 15,0 28,4 39,12 11,8 22,21 32,39l142 246 103 -247c8,-18 17,-31 27,-39 10,-8 23,-12 40,-12 16,0 30,5 41,14 11,9 17,23 17,40 0,10 -3,23 -9,38l-161 368c-22,51 -46,88 -74,113 -27,25 -61,37 -102,37 -11,0 -22,-1 -35,-4 -15,-3 -27,-10 -38,-22 -11,-12 -16,-26 -16,-41 0,-7 2,-15 5,-24 7,-16 18,-26 33,-30 15,-4 31,-6 49,-6 11,0 21,-2 28,-7 7,-5 14,-13 19,-26l8 -18 -200 -330c-8,-14 -13,-28 -13,-41z"/>
   <path class="fil0" d="M412 520c-10,0 -21,-2 -33,-7 -8,-3 -18,-5 -30,-8 -12,-2 -25,-3 -40,-3 -23,0 -45,4 -65,11 -20,8 -37,19 -52,34 -15,15 -27,34 -36,56 -9,22 -13,48 -13,77 0,26 4,51 13,72 9,22 21,41 37,57 16,16 35,28 57,37 22,9 46,13 73,13 24,0 47,-4 68,-12 14,-6 27,-8 40,-8 11,0 20,2 28,7 8,5 15,12 21,23 5,10 8,20 8,30 0,25 -14,44 -41,58 -17,9 -37,16 -60,22 -23,5 -48,8 -75,8 -46,0 -87,-7 -126,-22 -38,-15 -71,-35 -98,-62 -27,-27 -49,-59 -64,-96 -15,-37 -23,-79 -23,-126 0,-42 7,-82 20,-119 13,-37 33,-70 59,-97 26,-28 58,-49 97,-65 39,-16 83,-24 134,-24 26,0 49,2 70,7 21,5 37,10 48,16 30,16 45,35 45,58 0,11 -3,21 -8,32 -12,20 -29,30 -52,30z"/>
  </g>
 </g>
</svg>
