<?xml version="1.0" encoding="UTF-8"?>
<!DOCTYPE svg PUBLIC "-//W3C//DTD SVG 1.1//EN" "http://www.w3.org/Graphics/SVG/1.1/DTD/svg11.dtd">
<!-- Creator: CorelDRAW X6 -->
<svg xmlns="http://www.w3.org/2000/svg" xml:space="preserve" width="68mm" height="90mm" version="1.1" style="shape-rendering:geometricPrecision; text-rendering:geometricPrecision; image-rendering:optimizeQuality; fill-rule:evenodd; clip-rule:evenodd"
viewBox="0 0 6800 9000"
 xmlns:xlink="http://www.w3.org/1999/xlink">
 <defs>
  <style type="text/css">
   <![CDATA[
    .fil0 {fill:#43525D}
   ]]>
  </style>
 </defs>
 <g id="Слой_x0020_1">
  <metadata id="CorelCorpID_0Corel-Layer"/>
  <g id="_789302944">
   <path class="fil0" d="M5259 3195c-800,0 -1338,282 -1338,546 0,263 538,546 1338,546 801,0 1338,-282 1338,-546 0,-263 -538,-546 -1338,-546zm0 1244c-836,0 -1491,-307 -1491,-698 0,-392 655,-698 1491,-698 836,0 1491,307 1491,698 0,392 -655,698 -1491,698z"/>
   <path class="fil0" d="M5259 5264c-73,0 -145,-2 -215,-7 -42,-3 -74,-39 -71,-81 3,-42 39,-74 81,-71 66,4 135,6 205,6 801,0 1338,-282 1338,-546l0 -825c0,-42 34,-76 76,-76 42,0 76,34 76,76l0 825c0,392 -655,699 -1491,699z"/>
   <path class="fil0" d="M5259 6056l-25 0c-42,0 -77,-34 -77,-76 0,-42 34,-76 76,-76l25 0c801,0 1338,-282 1338,-545l0 -894c0,-42 34,-76 76,-76 42,0 76,34 76,76l0 894c0,391 -655,698 -1491,698z"/>
   <path class="fil0" d="M5259 6848c-56,0 -112,-2 -173,-5 -42,-2 -75,-38 -73,-80 2,-42 39,-74 80,-73 58,3 112,4 166,4 801,0 1338,-282 1338,-546l0 -826c0,-42 34,-76 76,-76 42,0 76,34 76,76l0 826c0,392 -655,699 -1491,699z"/>
   <path class="fil0" d="M1541 1611c-800,0 -1338,282 -1338,546 0,263 538,546 1338,546 801,0 1338,-282 1338,-546 0,-263 -538,-546 -1338,-546zm0 1244c-836,0 -1491,-307 -1491,-699 0,-392 655,-698 1491,-698 836,0 1491,307 1491,698 0,392 -655,699 -1491,699z"/>
   <path class="fil0" d="M1541 3681c-836,0 -1491,-307 -1491,-698l0 -826c0,-42 34,-76 76,-76 42,0 76,34 76,76l0 826c0,263 538,546 1338,546 801,0 1338,-282 1338,-546l0 -826c0,-42 34,-76 76,-76 42,0 76,34 76,76l0 826c0,392 -655,698 -1491,698z"/>
   <path class="fil0" d="M1541 4473c-836,0 -1491,-307 -1491,-699l0 -894c0,-42 34,-76 76,-76 42,0 76,34 76,76l0 894c0,263 538,546 1338,546 801,0 1338,-282 1338,-546l0 -894c0,-42 34,-76 76,-76 42,0 76,34 76,76l0 894c0,392 -655,699 -1491,699z"/>
   <path class="fil0" d="M1434 5263c-1,0 -2,0 -3,0 -788,-26 -1382,-326 -1382,-697l0 -825c0,-42 34,-76 76,-76 42,0 76,34 76,76l0 825c0,278 553,522 1234,544 42,2 75,37 74,79 -1,41 -35,74 -76,74z"/>
   <path class="fil0" d="M1252 6043c-3,0 -5,0 -7,0 -703,-64 -1194,-346 -1194,-685l0 -826c0,-42 34,-76 76,-76 42,0 76,34 76,76l0 826c0,248 454,477 1055,532 42,4 73,41 69,83 -4,40 -37,70 -76,70z"/>
   <path class="fil0" d="M1397 6845c-1,0 -2,0 -4,0 -778,-35 -1343,-327 -1343,-695l0 -826c0,-42 34,-76 76,-76 42,0 76,34 76,76l0 826c0,270 537,513 1197,542 42,2 75,38 73,80 -2,41 -35,73 -76,73z"/>
   <path class="fil0" d="M3243 4653c-754,0 -1368,614 -1368,1368 0,754 614,1368 1368,1368 754,0 1368,-614 1368,-1368 0,-754 -614,-1368 -1368,-1368zm0 2889c-839,0 -1521,-682 -1521,-1521 0,-839 682,-1521 1521,-1521 839,0 1521,682 1521,1521 0,839 -682,1521 -1520,1521z"/>
   <path class="fil0" d="M3243 6984c-531,0 -963,-432 -963,-963 0,-531 432,-963 963,-963 42,0 76,34 76,76 0,42 -34,76 -76,76 -447,0 -810,363 -810,810 0,447 364,810 810,810 447,0 810,-363 810,-810 0,-42 34,-76 76,-76 42,0 76,34 76,76 0,531 -432,963 -963,963z"/>
  </g>
 </g>
</svg>
