<?xml version="1.0" encoding="UTF-8"?>
<!DOCTYPE svg PUBLIC "-//W3C//DTD SVG 1.1//EN" "http://www.w3.org/Graphics/SVG/1.1/DTD/svg11.dtd">
<!-- Creator: CorelDRAW X6 -->
<svg xmlns="http://www.w3.org/2000/svg" xml:space="preserve" width="68mm" height="90mm" version="1.1" style="shape-rendering:geometricPrecision; text-rendering:geometricPrecision; image-rendering:optimizeQuality; fill-rule:evenodd; clip-rule:evenodd"
viewBox="0 0 6800 9000"
 xmlns:xlink="http://www.w3.org/1999/xlink">
 <defs>
  <style type="text/css">
   <![CDATA[
    .fil0 {fill:#43525D}
   ]]>
  </style>
 </defs>
 <g id="Слой_x0020_1">
  <metadata id="CorelCorpID_0Corel-Layer"/>
  <g id="_1070558960">
   <path class="fil0" d="M3896 8481c0,0 0,0 0,0l-1200 -1c-26,0 -51,-10 -69,-29 -18,-19 -29,-43 -28,-69l1 -730 -521 -219 -518 516c-38,38 -100,38 -138,0l-847 -849c-19,-19 -29,-43 -29,-69 0,-26 10,-50 29,-69l519 -516 -217 -521 -730 -2c-54,0 -98,-44 -97,-98l3 -1200c0,-26 10,-51 29,-69 18,-18 43,-29 69,-29l732 2 215 -522 -515 -517c-38,-38 -38,-100 0,-138l874 -872c18,-18 43,-28 69,-28 26,0 51,10 69,29l515 517 523 -213 1 -732c0,-54 44,-97 98,-97l1025 1c54,0 97,44 97,98 0,54 -44,98 -98,98l-927 -1 -1 699c0,39 -24,75 -61,90l-644 263c-36,15 -78,6 -106,-22l-492 -494 -736 734 492 494c28,28 36,69 21,106l-264 643c-15,36 -51,61 -90,61l-700 -2 -2 1005 697 2c39,0 75,24 90,60l268 642c15,37 7,79 -21,107l-496 494 709 711 495 -494c28,-28 70,-36 107,-21l641 270c36,15 60,51 60,90l-2 697 1005 1 1 -699c0,-40 24,-75 60,-90l644 -262c36,-15 78,-7 106,21l493 494 736 -733 -492 -494c-28,-28 -36,-70 -21,-106l265 -642c15,-36 51,-61 90,-61 0,0 0,0 0,0l700 1 2 -1005 -697 -1c-39,0 -75,-24 -90,-60l-201 -482c-21,-50 3,-107 52,-128 50,-21 107,3 128,52l176 422 730 2c54,0 97,44 97,98l-3 1200c0,54 -44,97 -98,97l-732 -1 -215 522 515 517c18,19 28,43 28,69 0,26 -10,50 -29,69l-874 871c-38,38 -100,38 -138,0l-516 -517 -522 213 -1 731c0,54 -44,97 -98,97z"/>
   <path class="fil0" d="M3325 6729c-1,0 -2,0 -2,0 -407,-1 -789,-160 -1076,-448 -593,-595 -591,-1561 4,-2154 122,-121 262,-220 414,-294 49,-23 107,-3 130,46 23,48 3,107 -46,130 -133,64 -255,151 -361,257 -518,517 -520,1359 -4,1878 250,251 584,390 938,390 1,0 1,0 2,0 354,0 687,-138 938,-387 257,-256 395,-596 390,-958 -1,-54 42,-98 96,-99 54,1 98,42 99,96 6,415 -153,806 -448,1099 -288,287 -669,444 -1075,444z"/>
   <path class="fil0" d="M3620 5818c-19,0 -38,-6 -55,-18 -44,-31 -55,-91 -25,-136l2259 -3261c30,-43 88,-55 132,-27l581 363 -398 -2003 -1975 519 581 363c44,28 59,85 34,131l-1942 3459c-26,47 -86,64 -133,37 -47,-26 -64,-86 -37,-133l1897 -3378 -694 -434c-33,-21 -51,-59 -45,-97 6,-38 34,-70 72,-80l2294 -603c26,-7 54,-3 76,12 23,14 39,37 44,64l463 2326c7,38 -8,77 -40,99 -32,22 -74,23 -107,3l-693 -434 -2207 3184c-19,27 -49,42 -80,42z"/>
  </g>
 </g>
</svg>
