<?xml version="1.0" encoding="UTF-8"?>
<!DOCTYPE svg PUBLIC "-//W3C//DTD SVG 1.1//EN" "http://www.w3.org/Graphics/SVG/1.1/DTD/svg11.dtd">
<!-- Creator: CorelDRAW X6 -->
<svg xmlns="http://www.w3.org/2000/svg" xml:space="preserve" width="68mm" height="90mm" version="1.1" style="shape-rendering:geometricPrecision; text-rendering:geometricPrecision; image-rendering:optimizeQuality; fill-rule:evenodd; clip-rule:evenodd"
viewBox="0 0 6800 9000"
 xmlns:xlink="http://www.w3.org/1999/xlink">
 <defs>
  <style type="text/css">
   <![CDATA[
    .fil0 {fill:#43525D}
   ]]>
  </style>
 </defs>
 <g id="Слой_x0020_1">
  <metadata id="CorelCorpID_0Corel-Layer"/>
  <g id="_803933584">
   <path class="fil0" d="M1334 4958c-261,0 -525,163 -525,526 0,343 255,668 525,668 270,0 525,-325 525,-668 0,-363 -264,-526 -525,-526zm0 1353c-365,0 -684,-387 -684,-828 0,-397 288,-686 684,-686 397,0 684,288 684,686 0,441 -320,828 -684,828z"/>
   <path class="fil0" d="M2540 7875c-44,0 -80,-36 -80,-80l0 -624c0,-274 -223,-501 -497,-507l-9 0 -1244 0c-275,6 -500,233 -500,507l0 624c0,44 -36,80 -80,80 -44,0 -80,-36 -80,-80l0 -624c0,-366 298,-665 665,-666l9 0 1219 0 10 0c368,0 666,299 666,666l0 624c0,44 -36,80 -80,80z"/>
   <path class="fil0" d="M2730 1275c-258,0 -519,161 -519,520 0,339 252,661 519,661 267,0 519,-321 519,-661 0,-360 -261,-520 -519,-520zm0 1340c-362,0 -679,-383 -679,-820 0,-394 285,-680 679,-680 393,0 678,286 678,680 0,437 -317,820 -678,820z"/>
   <path class="fil0" d="M3396 5569c-21,0 -41,-9 -56,-24 -15,-15 -23,-35 -23,-57l2 -174 0 -369c0,-6 1,-12 3,-19l4 -15 -4 -15c-2,-7 -3,-14 -3,-19l0 -1000 0 -2c0,-5 1,-7 1,-10 1,-3 1,-5 2,-8 1,-2 1,-5 2,-7 1,-2 2,-5 3,-7 1,-2 2,-5 4,-7 2,-2 3,-5 5,-7 1,-2 3,-3 4,-5 2,-3 4,-5 6,-6l5 -5 1342 -1089c61,-49 100,-119 108,-197 9,-78 -14,-154 -63,-215l-5 -6c-56,-69 -139,-109 -228,-109 -65,0 -129,22 -180,62l-875 714c-5,4 -9,7 -14,9 -4,2 -9,4 -14,5 -6,2 -10,2 -14,3l-11 1 -1343 0c-25,0 -48,-11 -63,-31l-2 -3 -5 -5 -851 -695c-51,-40 -114,-62 -179,-62 -89,0 -173,40 -229,109l-5 6c-49,61 -72,137 -64,215 9,78 47,148 108,197l1345 1092c21,17 32,43 29,70l0 3 0 7 1 9 18 878c0,21 -7,41 -22,57 -15,15 -35,24 -56,25 -44,0 -80,-34 -81,-78l-18 -869 -1316 -1068c-94,-76 -153,-184 -166,-304 -13,-120 22,-239 98,-333l5 -6c86,-106 214,-167 352,-167 103,0 199,33 279,96l857 699 1281 0 855 -698c80,-63 177,-97 280,-97 138,0 266,61 352,167l5 6c76,94 111,213 98,333 -13,120 -72,229 -167,305l-1315 1067 0 962c0,6 -1,12 -3,19l-4 15 4 14c2,8 3,14 3,19l-2 545c0,43 -36,79 -80,79l-2 0z"/>
   <path class="fil0" d="M4884 3682c-258,0 -519,161 -519,521 0,340 252,661 519,661 267,0 519,-321 519,-661 0,-360 -261,-521 -519,-521zm0 1341c-362,0 -679,-383 -679,-821 0,-394 285,-680 679,-680 393,0 679,286 679,680 0,437 -317,821 -679,821z"/>
   <path class="fil0" d="M4278 7885c-44,0 -80,-36 -80,-79l-2 -630 -1 -4c-5,-16 -6,-28 -4,-40 3,-16 5,-30 5,-45l0 -7 0 -877 -695 755c-70,77 -170,122 -274,124l-9 0c-101,0 -199,-41 -270,-113l-5 -5c-138,-139 -148,-358 -22,-510l935 -1022c31,-37 194,-218 490,-218l1151 0c11,0 21,2 31,6l3 1 7 2c226,39 350,178 372,206l819 895c14,16 22,36 21,58 -1,21 -10,41 -26,55 -15,14 -34,21 -54,21 -23,0 -44,-9 -59,-26l-820 -896c-2,-2 -4,-4 -5,-6 -6,-7 -126,-156 -361,-157l-1079 0c-244,0 -363,155 -364,157 -2,2 -4,5 -6,7l-932 1019c-72,90 -66,218 13,297l5 5c42,42 96,66 153,66 4,0 7,0 11,0 60,-1 116,-27 158,-72l833 -905 12 -11 5 -3 13 -7 14 -4 5 -1c5,-1 7,-1 10,-1 1,0 4,0 6,1 5,0 7,0 9,1l6 2c4,1 6,2 9,3l14 7c2,1 3,2 4,4l5 4 4 3c0,0 7,9 7,9l4 5 4 8 2 5 3 8 2 6c0,0 2,12 2,13l0 6 0 1083 0 5 1 714c0,44 -35,80 -79,80l0 0z"/>
   <path class="fil0" d="M5497 7164c-44,0 -80,-36 -80,-80l0 -1057 -1 -4c-9,-33 -1,-64 21,-84 14,-13 33,-21 54,-21 3,0 5,0 7,0 29,2 54,16 67,40l2 3 4 6 705 765c14,16 22,36 21,58 -1,21 -10,41 -26,55 -15,14 -34,21 -54,21 -23,0 -44,-9 -59,-26l-582 -632 0 875c0,44 -36,80 -80,80z"/>
  </g>
 </g>
</svg>
