<?xml version="1.0" encoding="UTF-8"?>
<!DOCTYPE svg PUBLIC "-//W3C//DTD SVG 1.1//EN" "http://www.w3.org/Graphics/SVG/1.1/DTD/svg11.dtd">
<!-- Creator: CorelDRAW X6 -->
<svg xmlns="http://www.w3.org/2000/svg" xml:space="preserve" width="68mm" height="90mm" version="1.1" style="shape-rendering:geometricPrecision; text-rendering:geometricPrecision; image-rendering:optimizeQuality; fill-rule:evenodd; clip-rule:evenodd"
viewBox="0 0 6800 9000"
 xmlns:xlink="http://www.w3.org/1999/xlink">
 <defs>
  <style type="text/css">
   <![CDATA[
    .str0 {stroke:#2B2A29;stroke-width:200}
    .str1 {stroke:#2B2A29;stroke-width:200;stroke-linecap:round}
    .fil0 {fill:none}
    .fil1 {fill:#2B2A29}
    .fil2 {fill:#2B2A29;fill-rule:nonzero}
   ]]>
  </style>
 </defs>
 <g id="Слой_x0020_1">
  <metadata id="CorelCorpID_0Corel-Layer"/>
  <g id="_799412512">
   <rect class="fil0 str0" transform="matrix(0.5575 -0.241673 0.277916 0.641107 809.051 5887.94)" width="3069" height="2752" rx="714" ry="714"/>
   <path class="fil1" d="M5021 3862c-872,0 -1582,709 -1582,1582 0,872 709,1582 1582,1582 872,0 1582,-709 1582,-1582 0,-872 -710,-1582 -1582,-1582zm0 3311c-954,0 -1730,-776 -1730,-1729 0,-954 776,-1729 1729,-1729 954,0 1729,776 1729,1729 0,953 -776,1729 -1729,1729z"/>
   <path class="fil1" d="M5021 6651c-666,0 -1207,-541 -1207,-1207 0,-666 541,-1207 1207,-1207 41,0 74,33 74,74 0,41 -33,74 -74,74 -584,0 -1059,475 -1059,1059 0,584 475,1059 1059,1059 584,0 1059,-475 1059,-1059 0,-41 33,-74 74,-74 41,0 74,33 74,74 0,666 -541,1207 -1207,1207z"/>
   <path class="fil1" d="M1301 2686c-608,0 -1103,495 -1103,1103 0,608 495,1103 1103,1103 608,0 1103,-495 1103,-1103 0,-608 -495,-1103 -1103,-1103zm0 2354c-690,0 -1251,-561 -1251,-1251 0,-690 561,-1251 1251,-1251 690,0 1251,561 1251,1251 0,690 -561,1251 -1251,1251z"/>
   <path class="fil2" d="M1102 3294c19,0 39,0 61,-1 22,-1 43,-1 64,-2 21,-1 41,-1 59,-1 19,0 35,0 48,0 82,0 151,10 206,30 55,20 98,47 131,81 32,33 55,72 69,114 14,43 21,87 21,132 0,47 -9,92 -25,136 -17,43 -42,82 -76,115 -34,33 -77,60 -129,81 -52,20 -113,30 -183,30 -23,0 -50,-1 -82,-2 -32,-1 -62,-3 -90,-5l0 385c0,19 -7,35 -21,49 -14,14 -30,21 -49,21 -20,0 -36,-7 -50,-21 -14,-14 -21,-30 -21,-49l0 -1024c0,-19 7,-35 21,-49 14,-14 30,-21 49,-21zm71 576c29,2 56,4 84,6 27,2 55,2 84,2 86,0 152,-20 200,-61 48,-41 72,-97 72,-169 0,-69 -21,-123 -63,-163 -42,-40 -109,-59 -201,-59 -23,0 -51,0 -84,1 -33,1 -63,1 -90,2l0 441z"/>
   <line class="fil0 str1" x1="911" y1="4203" x2="1378" y2= "4203" />
   <path class="fil1" d="M1648 5913c-43,16 -84,39 -121,68 259,35 499,115 706,231 196,109 363,251 490,416 -1,-85 -32,-179 -60,-252l-118 -318c-87,-232 -348,-351 -580,-264l-318 119zm-223 174c-69,96 -101,215 -73,330 193,16 393,78 581,172 184,93 357,216 496,357 91,-37 196,-91 252,-174 -123,-184 -297,-341 -506,-458 -217,-122 -473,-201 -751,-227zm-21 453l121 246c103,211 312,383 555,292l229 -86c-124,-117 -271,-219 -428,-298 -155,-78 -319,-132 -477,-154z"/>
   <rect class="fil0 str0" x="2820" y="1501" width="1865" height="1923" rx="434" ry="499"/>
   <path class="fil1" d="M3581 1816c-49,-2 -98,5 -146,18 241,140 444,316 601,515 148,187 255,394 313,609 34,-84 41,-189 44,-273l13 -361c10,-264 -199,-487 -463,-496l-361 -12zm-290 80c-107,67 -187,170 -206,295 183,94 355,237 502,406 144,166 263,358 343,553 104,1 230,-10 319,-69 -46,-231 -153,-456 -312,-657 -164,-208 -384,-391 -647,-529zm-205 437l18 292c16,250 151,504 428,513l261 9c-74,-165 -178,-326 -300,-468 -121,-140 -260,-260 -407,-346z"/>
   <path class="fil2" d="M5040 4847c18,4 38,8 60,12 22,4 43,8 63,12 20,4 40,8 58,12 18,4 34,7 47,10 80,18 145,42 194,74 49,32 86,67 110,107 24,40 39,82 43,126 4,45 1,89 -8,133 -10,46 -28,88 -54,127 -26,39 -59,71 -99,96 -40,25 -88,42 -143,51 -55,9 -117,5 -186,-10 -22,-5 -49,-11 -80,-19 -31,-8 -60,-16 -87,-24l-83 376c-4,18 -14,33 -31,43 -16,10 -34,14 -52,10 -19,-4 -34,-15 -45,-31 -10,-16 -14,-34 -10,-52l221 -1000c4,-18 14,-33 31,-43 16,-10 34,-14 52,-10zm-55 577c27,8 54,16 81,24 26,8 54,14 81,20 84,18 153,13 208,-17 55,-30 91,-80 106,-150 15,-67 6,-124 -27,-172 -33,-48 -94,-82 -184,-101 -22,-5 -50,-11 -82,-17 -32,-7 -62,-12 -89,-17l-95 430z"/>
   <line class="fil0 str1" x1="4658" y1="5693" x2="5114" y2= "5794" />
  </g>
 </g>
</svg>
