<?xml version="1.0" encoding="UTF-8"?>
<!DOCTYPE svg PUBLIC "-//W3C//DTD SVG 1.1//EN" "http://www.w3.org/Graphics/SVG/1.1/DTD/svg11.dtd">
<!-- Creator: CorelDRAW X6 -->
<svg xmlns="http://www.w3.org/2000/svg" xml:space="preserve" width="68mm" height="90mm" version="1.1" style="shape-rendering:geometricPrecision; text-rendering:geometricPrecision; image-rendering:optimizeQuality; fill-rule:evenodd; clip-rule:evenodd"
viewBox="0 0 6800 9000"
 xmlns:xlink="http://www.w3.org/1999/xlink">
 <defs>
  <style type="text/css">
   <![CDATA[
    .fil0 {fill:#2B2A29}
   ]]>
  </style>
 </defs>
 <g id="Слой_x0020_1">
  <metadata id="CorelCorpID_0Corel-Layer"/>
  <g id="_807947840">
   <path class="fil0" d="M5132 3277c-42,0 -76,-34 -76,-76l0 -1230c0,-198 -161,-359 -360,-359l-2592 0c-198,0 -360,161 -360,360l0 1230c0,42 -34,76 -76,76 -42,0 -76,-34 -76,-76l0 -1230c0,-282 230,-511 512,-511l2592 0c282,0 512,229 512,512l0 1230c0,42 -34,76 -76,76z"/>
   <path class="fil0" d="M4696 7541l-2592 0c-282,0 -512,-229 -512,-512l0 -1232c0,-42 34,-76 76,-76 42,0 76,34 76,76l0 1232c0,198 161,360 359,360l2592 0c198,0 360,-161 360,-359l0 -1232c0,-42 34,-76 76,-76 42,0 76,34 76,76l0 1232c0,282 -230,512 -512,512z"/>
   <path class="fil0" d="M3979 2071l-1157 0c-42,0 -76,-34 -76,-76 0,-42 34,-76 76,-76l1157 0c42,0 76,34 76,76 0,42 -34,76 -76,76z"/>
   <path class="fil0" d="M3611 7092l-423 0c-42,0 -76,-34 -76,-76 0,-42 34,-76 76,-76l423 0c42,0 76,34 76,76 0,42 -34,76 -76,76z"/>
   <path class="fil0" d="M4269 5049c-42,0 -76,-34 -76,-76 0,-10 2,-21 6,-31 61,-140 91,-288 91,-440 0,-154 -31,-303 -92,-443 -17,-38 0,-83 39,-100 39,-17 83,1 100,39 70,159 105,328 105,504 0,173 -35,340 -103,499 -11,28 -39,48 -71,48z"/>
   <path class="fil0" d="M4973 5358c-42,0 -76,-34 -76,-76 0,-11 2,-22 7,-31 104,-237 157,-489 157,-751 0,-262 -52,-514 -156,-751 -17,-38 1,-83 39,-100 39,-17 83,1 100,39 113,256 169,529 169,812 0,282 -57,554 -169,810 -11,28 -39,48 -71,48z"/>
   <path class="fil0" d="M5676 5667c-10,0 -21,-2 -31,-6 -39,-17 -56,-62 -39,-100 148,-335 222,-692 222,-1062 0,-368 -74,-725 -221,-1059 -17,-38 1,-83 39,-100 39,-17 83,1 100,39 155,354 234,731 234,1120 0,391 -79,769 -235,1123 -12,28 -40,45 -69,45z"/>
   <path class="fil0" d="M6380 5977c-10,0 -21,-2 -30,-6 -38,-17 -56,-62 -39,-100 191,-433 287,-895 287,-1373 0,-476 -96,-936 -285,-1367 -17,-38 1,-83 39,-100 39,-17 83,1 100,39 198,451 298,931 298,1428 0,499 -101,981 -300,1434 -12,28 -40,45 -70,45z"/>
   <path class="fil0" d="M2533 5055c-29,0 -57,-17 -69,-45 -71,-160 -107,-331 -107,-507 0,-177 36,-348 108,-509 17,-38 62,-56 100,-39 39,17 56,62 39,100 -63,141 -95,292 -95,448 0,155 32,305 94,446 17,38 -1,83 -39,100 -10,4 -20,6 -31,6z"/>
   <path class="fil0" d="M1830 5364c-29,0 -57,-17 -70,-45 -114,-258 -172,-533 -172,-818 0,-284 58,-560 172,-818 17,-38 62,-56 100,-39 39,17 56,62 39,100 -105,239 -159,493 -159,756 0,263 54,518 159,757 17,38 0,83 -39,100 -10,4 -21,6 -31,6z"/>
   <path class="fil0" d="M1126 5673c-29,0 -57,-17 -69,-45 -158,-356 -238,-736 -238,-1129 0,-392 80,-771 236,-1126 17,-38 62,-56 100,-39 39,17 56,62 39,100 -148,336 -223,694 -223,1064 0,371 76,730 224,1067 17,38 0,83 -39,100 -10,4 -21,7 -31,7z"/>
   <path class="fil0" d="M423 5982c-29,0 -57,-17 -70,-45 -201,-454 -303,-939 -303,-1439 0,-500 101,-982 301,-1434 17,-38 62,-56 100,-39 39,17 56,62 39,100 -191,432 -288,894 -288,1373 0,479 98,943 290,1378 17,38 -1,83 -39,100 -10,4 -21,6 -31,6z"/>
  </g>
 </g>
</svg>
