<?xml version="1.0" encoding="UTF-8"?>
<!DOCTYPE svg PUBLIC "-//W3C//DTD SVG 1.1//EN" "http://www.w3.org/Graphics/SVG/1.1/DTD/svg11.dtd">
<!-- Creator: CorelDRAW X6 -->
<svg xmlns="http://www.w3.org/2000/svg" xml:space="preserve" width="68mm" height="90mm" version="1.1" style="shape-rendering:geometricPrecision; text-rendering:geometricPrecision; image-rendering:optimizeQuality; fill-rule:evenodd; clip-rule:evenodd"
viewBox="0 0 6800 9000"
 xmlns:xlink="http://www.w3.org/1999/xlink">
 <defs>
  <style type="text/css">
   <![CDATA[
    .fil0 {fill:#2B2A29}
   ]]>
  </style>
 </defs>
 <g id="Слой_x0020_1">
  <metadata id="CorelCorpID_0Corel-Layer"/>
  <g id="_799414688">
   <path class="fil0" d="M918 2890c-191,0 -346,155 -346,347 0,191 155,346 346,346 191,0 346,-155 346,-346 0,-191 -155,-347 -346,-347zm0 821c-261,0 -474,-213 -474,-474 0,-261 213,-474 474,-474 261,0 474,213 474,474 0,261 -213,474 -474,474z"/>
   <path class="fil0" d="M922 5407c34,0 62,27 63,62l43 1460 1 2c16,35 65,51 105,51 16,0 31,-2 45,-6 56,-16 89,-75 73,-131 -2,-6 -3,-12 -2,-18l15 -1460 0 -911c0,-26 15,-49 39,-59 8,-3 16,-5 24,-5 17,0 33,7 45,18 106,105 175,174 274,271l18 18c41,41 87,62 138,62 68,0 142,-37 209,-103l218 -218c25,-25 39,-58 39,-93 0,-35 -14,-68 -39,-93 -26,-27 -60,-40 -96,-40 -35,0 -69,14 -93,37l-180 180c-11,11 -28,18 -45,18 -17,0 -34,-6 -45,-18l-368 -368c-67,-67 -156,-104 -250,-104l-649 0c-180,0 -327,147 -327,327l0 805c0,67 43,124 103,137 9,2 19,3 28,3 36,0 70,-14 96,-39 26,-25 40,-58 40,-92l0 -730c0,-35 29,-64 64,-64 35,0 64,29 64,64l0 998 7 1459c0,6 -1,12 -2,18 -8,27 -5,56 9,81 14,25 36,43 64,50l5 2c10,3 20,4 32,4 51,0 100,-27 116,-64l1 -2 55 -1447c1,-34 29,-61 64,-61l0 0zm213 1703c-91,0 -172,-41 -212,-108l-10 -17 -11 16c-45,67 -128,108 -214,108 -24,0 -47,-3 -69,-9l-5 -2c-59,-17 -109,-57 -139,-111 -28,-51 -37,-110 -23,-167l-6 -1498 -18 9c-36,18 -76,27 -117,27 -19,0 -37,-2 -55,-6 -118,-25 -204,-135 -204,-261l0 -805c0,-250 204,-454 454,-454l649 0c129,0 249,50 341,141l323 322 134 -134c49,-49 114,-76 183,-76 69,0 134,27 183,76 52,51 79,116 79,186 0,69 -27,134 -76,183l-218 218c-91,91 -197,141 -299,141 -84,0 -163,-34 -228,-99l-183 -182 0 759 -15 1450c29,124 -43,247 -163,281 -26,7 -53,11 -80,11z"/>
   <path class="fil0" d="M5886 2890c-191,0 -347,155 -347,347 0,191 155,346 347,346 191,0 346,-155 346,-346 0,-191 -155,-347 -346,-347zm0 821c-261,0 -474,-213 -474,-474 0,-261 213,-474 474,-474 261,0 474,213 474,474 0,261 -213,474 -474,474z"/>
   <path class="fil0" d="M5889 5407c34,0 62,27 63,62l43 1460 1 2c16,35 65,51 106,51 16,0 31,-2 45,-6 56,-16 89,-75 73,-131 -2,-6 -3,-12 -3,-18l15 -1460 0 -226 1 -5c0,-3 0,-6 1,-8l3 -9 -1 -3c-2,-7 -3,-12 -3,-17l0 -730c0,-35 29,-64 64,-64 35,0 64,29 64,64l0 730c0,5 -1,11 -3,17l-1 4 1 4c7,28 19,50 38,68 26,25 60,39 96,39 9,0 19,-1 28,-3 60,-13 103,-70 103,-137l0 -804c0,-180 -146,-326 -326,-327l-824 0c-180,0 -327,147 -327,327l0 804c0,66 43,124 103,137 9,2 19,3 28,3 36,0 70,-14 96,-39 18,-18 31,-40 37,-65 2,-11 3,-20 3,-27l0 -730c0,-35 29,-64 64,-64 35,0 64,29 64,64l0 998 7 1459c0,6 -1,12 -2,18 -16,56 17,115 73,131l5 2c10,3 21,4 32,4 50,0 100,-28 116,-65l1 -2 54 -1447c1,-34 29,-61 64,-61l0 0zm-234 1703c-24,0 -47,-3 -70,-10l-5 -2c-119,-35 -190,-157 -162,-278l-6 -1499 -18 9c-37,18 -77,28 -117,28 -18,0 -37,-2 -54,-6 -118,-25 -204,-135 -204,-262l0 -804c0,-250 204,-454 454,-454l824 0c251,1 454,204 454,454l0 804c0,126 -86,236 -204,262 -18,4 -36,6 -55,6 -39,0 -77,-9 -113,-26l-18 -9 0 43 -15 1450c29,124 -43,247 -163,281 -26,7 -53,11 -80,11 -93,0 -173,-40 -213,-107l-10 -17 -11 17c-45,67 -126,108 -212,108z"/>
   <path class="fil0" d="M2773 4156l319 0 0 -777 -319 0 0 777zm446 0l319 0 0 -1084 -319 0 0 1084zm447 0l319 0 0 -777 -319 0 0 777zm446 0l319 0 0 -518 -319 0 0 518zm-1403 128c-35,0 -64,-29 -64,-64l0 -904c0,-35 29,-64 64,-64l383 0 0 -243c0,-35 29,-64 64,-64l447 0c35,0 64,29 64,64l0 243 383 0c35,0 64,29 64,64l0 195 383 0c35,0 64,29 64,64l0 646c0,35 -29,64 -64,64l-1786 0z"/>
   <path class="fil0" d="M1719 2017c-11,0 -21,13 -21,28l0 178 3806 0 0 -178c0,-15 -10,-28 -21,-28l-3765 0zm-8 1933c-35,0 -64,-29 -64,-64l0 -1535 -13 0c-35,0 -64,-29 -64,-64l0 -242c0,-86 66,-155 148,-155l3765 0c82,0 148,70 148,156l0 242c0,35 -29,64 -64,64l-13 0 0 289c0,35 -29,64 -64,64 -35,0 -64,-29 -64,-64l0 -289 -3653 0 0 1535c0,35 -29,64 -64,64z"/>
   <path class="fil0" d="M4400 6363c-26,0 -49,-15 -59,-39l-538 -1254 -415 0 -527 1254c-10,24 -33,39 -59,39 -8,0 -17,-2 -25,-5 -32,-14 -48,-51 -34,-84l506 -1204 -1185 0c-35,0 -64,-29 -64,-64 0,-35 29,-64 64,-64l2731 0c35,0 64,29 64,64 0,35 -29,64 -64,64l-854 0 516 1204c7,16 7,33 1,49 -6,16 -19,28 -34,35 -8,3 -17,5 -25,5z"/>
  </g>
 </g>
</svg>
