<?xml version="1.0" encoding="UTF-8"?>
<!DOCTYPE svg PUBLIC "-//W3C//DTD SVG 1.1//EN" "http://www.w3.org/Graphics/SVG/1.1/DTD/svg11.dtd">
<!-- Creator: CorelDRAW X6 -->
<svg xmlns="http://www.w3.org/2000/svg" xml:space="preserve" width="68mm" height="90mm" version="1.1" style="shape-rendering:geometricPrecision; text-rendering:geometricPrecision; image-rendering:optimizeQuality; fill-rule:evenodd; clip-rule:evenodd"
viewBox="0 0 6800 9000"
 xmlns:xlink="http://www.w3.org/1999/xlink">
 <defs>
  <style type="text/css">
   <![CDATA[
    .fil0 {fill:#2B2A29}
   ]]>
  </style>
 </defs>
 <g id="Слой_x0020_1">
  <metadata id="CorelCorpID_0Corel-Layer"/>
  <g id="_1076161632">
   <path class="fil0" d="M3852 1712c-291,0 -528,237 -528,528l0 1528c0,291 237,528 528,528l868 0c20,0 39,8 53,22l625 624 0 -571c0,-42 34,-76 76,-76l597 0c291,0 528,-237 528,-528l0 -1528c0,-291 -237,-528 -528,-528l-2219 0zm1622 3490c-20,0 -39,-8 -54,-22l-731 -732 -837 0c-375,0 -680,-305 -680,-679l0 -1528c0,-375 305,-679 680,-679l2219 0c375,0 680,305 680,679l0 1528c0,375 -305,679 -680,679l-521 0 0 678c0,31 -18,58 -47,70 -9,4 -19,6 -29,6z"/>
   <path class="fil0" d="M5879 2980c-18,0 -34,15 -34,33 0,18 15,33 34,33 19,0 33,-15 33,-33 0,-18 -15,-33 -33,-33zm0 218c-102,0 -185,-83 -185,-185 0,-102 83,-185 185,-185 102,0 185,83 185,185 0,102 -83,185 -185,185z"/>
   <path class="fil0" d="M4961 2980c-18,0 -33,15 -33,33 0,18 15,33 33,33 18,0 33,-15 33,-33 0,-18 -15,-33 -33,-33zm0 218c-102,0 -185,-83 -185,-185 0,-102 83,-185 185,-185 102,0 185,83 185,185 0,102 -83,185 -185,185z"/>
   <path class="fil0" d="M4043 2980c-18,0 -33,15 -33,33 0,18 15,33 33,33 18,0 33,-15 33,-33 0,-18 -15,-33 -33,-33zm0 218c-102,0 -185,-83 -185,-185 0,-102 83,-185 185,-185 102,0 185,83 185,185 0,102 -83,185 -185,185z"/>
   <path class="fil0" d="M1724 2641c-351,0 -637,286 -637,637 0,351 286,637 637,637 351,0 637,-286 637,-637 0,-351 -286,-637 -637,-637zm0 1425c-435,0 -788,-354 -788,-788 0,-435 354,-788 788,-788 435,0 788,354 788,788 0,435 -354,788 -788,788z"/>
   <path class="fil0" d="M1540 6115l-562 0c-42,0 -76,-34 -76,-76l0 -557c0,-42 34,-76 76,-76 42,0 76,34 76,76l0 481 486 0c42,0 76,34 76,76 0,42 -34,76 -76,76z"/>
   <path class="fil0" d="M1343 6781l-582 0c-278,0 -504,-226 -504,-504l0 -993c0,-474 334,-832 778,-832l1378 0c444,0 779,358 779,832l0 83c0,42 -34,76 -76,76 -42,0 -76,-34 -76,-76l0 -83c0,-388 -270,-681 -627,-681l-1378 0c-357,0 -627,293 -627,681l0 993c0,195 158,353 353,353l582 0c42,0 76,34 76,76 0,42 -34,76 -76,76z"/>
   <path class="fil0" d="M1248 7288l2373 0 548 -1846 -2373 0 -548 1846zm2429 151l-2531 0c-24,0 -46,-11 -61,-31 -14,-19 -19,-44 -12,-67l593 -1997c10,-32 39,-54 73,-54l2531 0c24,0 46,11 61,30 14,19 19,44 12,67l-593 1997c-10,32 -39,54 -73,54z"/>
   <path class="fil0" d="M1147 7440l-1021 0c-42,0 -76,-34 -76,-76 0,-42 34,-76 76,-76l1021 0c42,0 76,34 76,76 0,42 -34,76 -76,76z"/>
  </g>
 </g>
</svg>
