<?xml version="1.0" encoding="UTF-8"?>
<!DOCTYPE svg PUBLIC "-//W3C//DTD SVG 1.1//EN" "http://www.w3.org/Graphics/SVG/1.1/DTD/svg11.dtd">
<!-- Creator: CorelDRAW X6 -->
<svg xmlns="http://www.w3.org/2000/svg" xml:space="preserve" width="68mm" height="90mm" version="1.1" style="shape-rendering:geometricPrecision; text-rendering:geometricPrecision; image-rendering:optimizeQuality; fill-rule:evenodd; clip-rule:evenodd"
viewBox="0 0 6800 9000"
 xmlns:xlink="http://www.w3.org/1999/xlink">
 <defs>
  <style type="text/css">
   <![CDATA[
    .fil0 {fill:#2B2A29}
   ]]>
  </style>
 </defs>
 <g id="Слой_x0020_1">
  <metadata id="CorelCorpID_0Corel-Layer"/>
  <g id="_803469888">
   <path class="fil0" d="M4390 7293l-3704 0c-351,0 -636,-285 -636,-636l0 -4314c0,-351 285,-636 636,-636l3704 0c351,0 636,285 636,636l0 1788c0,41 -33,73 -73,73 -41,0 -73,-33 -73,-73l0 -1788c0,-270 -219,-489 -489,-489l-3704 0c-270,0 -489,219 -489,489l0 4314c0,270 220,489 489,489l3704 0c270,0 489,-219 489,-489l0 -33c0,-41 33,-73 73,-73 41,0 73,33 73,73l0 33c0,351 -285,636 -636,636z"/>
   <path class="fil0" d="M1037 3778l1049 0 0 -1049 -1049 0 0 1049zm1122 147l-1196 0c-41,0 -73,-33 -73,-73l0 -1196c0,-41 33,-73 73,-73l1196 0c41,0 73,33 73,73l0 1196c0,41 -33,73 -73,73z"/>
   <path class="fil0" d="M4216 2916l-1351 0c-41,0 -73,-33 -73,-73 0,-41 33,-73 73,-73l1351 0c41,0 73,33 73,73 0,41 -33,73 -73,73z"/>
   <path class="fil0" d="M3042 4782l-2155 0c-41,0 -73,-33 -73,-73 0,-41 33,-73 73,-73l2155 0c40,0 73,33 73,73 0,41 -33,73 -73,73z"/>
   <path class="fil0" d="M3857 5602l-2971 0c-41,0 -73,-33 -73,-73 0,-41 33,-73 73,-73l2971 0c41,0 73,33 73,73 0,41 -33,73 -73,73z"/>
   <path class="fil0" d="M4169 6423l-3330 0c-41,0 -73,-33 -73,-73 0,-41 33,-73 73,-73l3330 0c41,0 73,33 73,73 0,41 -33,73 -73,73z"/>
   <path class="fil0" d="M3527 4432l2566 2566 480 -480 -2566 -2566 -671 -191 191 671zm2566 2743l0 0c-20,0 -38,-8 -52,-22l-2631 -2631c-9,-9 -15,-20 -19,-32l-232 -816c-7,-26 0,-53 19,-72 19,-19 46,-26 72,-19l816 232c12,3 23,10 32,19l2631 2631c29,29 29,75 0,104l-583 584c-14,14 -33,22 -52,22z"/>
   <path class="fil0" d="M5714 6796c-19,0 -38,-7 -52,-22 -29,-29 -29,-75 0,-104l583 -584c29,-29 75,-29 104,0 29,29 29,75 0,104l-583 584c-14,14 -33,22 -52,22z"/>
   <path class="fil0" d="M3462 4543c-19,0 -38,-7 -52,-22 -29,-29 -29,-75 0,-104l575 -576c29,-29 75,-29 104,0 29,29 29,75 0,104l-576 576c-14,14 -33,22 -52,22z"/>
  </g>
 </g>
</svg>
