<?xml version="1.0" encoding="UTF-8"?>
<!DOCTYPE svg PUBLIC "-//W3C//DTD SVG 1.1//EN" "http://www.w3.org/Graphics/SVG/1.1/DTD/svg11.dtd">
<!-- Creator: CorelDRAW X6 -->
<svg xmlns="http://www.w3.org/2000/svg" xml:space="preserve" width="68mm" height="90mm" version="1.1" style="shape-rendering:geometricPrecision; text-rendering:geometricPrecision; image-rendering:optimizeQuality; fill-rule:evenodd; clip-rule:evenodd"
viewBox="0 0 6800 9000"
 xmlns:xlink="http://www.w3.org/1999/xlink">
 <defs>
  <style type="text/css">
   <![CDATA[
    .str0 {stroke:#2B2A29;stroke-width:200}
    .str1 {stroke:#2B2A29;stroke-width:200;stroke-linecap:round}
    .fil0 {fill:none}
    .fil1 {fill:#2B2A29}
    .fil2 {fill:#2B2A29;fill-rule:nonzero}
   ]]>
  </style>
 </defs>
 <g id="Слой_x0020_1">
  <metadata id="CorelCorpID_0Corel-Layer"/>
  <g id="_807951744">
   <path class="fil0 str0" d="M2654 5865l-1466 0c-191,0 -347,-146 -347,-325l0 -1931c0,-179 156,-325 347,-325l2489 0c191,0 347,146 347,325l0 92"/>
   <path class="fil1" d="M4064 7870l-3232 0c-431,0 -782,-351 -782,-781l0 -5177c0,-431 351,-781 782,-781l3232 0c431,0 782,351 782,781l0 2444c0,47 -39,86 -86,86 -47,0 -86,-38 -86,-86l0 -2444c0,-337 -274,-610 -610,-610l-3232 0c-337,0 -611,274 -611,610l0 5177c0,337 274,610 611,610l3232 0c337,0 610,-274 610,-610l0 -146c0,-47 38,-86 86,-86 47,0 86,38 86,86l0 146c0,431 -351,782 -782,782z"/>
   <path class="fil1" d="M2863 7142l-831 0c-47,0 -86,-38 -86,-86 0,-47 39,-86 86,-86l831 0c47,0 85,38 85,86 0,47 -38,86 -85,86z"/>
   <path class="fil1" d="M1829 1301c70,201 212,333 366,333l505 0c154,0 296,-133 366,-333l-1237 0zm871 505l-505 0c-261,0 -493,-236 -562,-573 -5,-25 1,-51 18,-71 16,-20 40,-31 66,-31l1461 0c26,0 50,12 66,32 16,20 23,46 18,71 -69,337 -300,573 -562,573z"/>
   <path class="fil1" d="M5015 6907c8,0 17,1 26,4 350,109 724,53 1027,-154 537,-367 673,-1115 304,-1669l-483 -725c-120,-181 -352,-247 -549,-158l-1192 571c-39,18 -84,6 -108,-30l-679 -1018c-34,-51 -86,-86 -146,-98 -60,-12 -121,0 -172,34 -51,34 -86,86 -98,146 -12,60 0,121 34,172l1317 1975c20,30 19,70 -3,99 -22,29 -60,41 -95,29l-804 -266c-57,-19 -118,-14 -172,13 -54,27 -94,73 -113,130 -19,57 -15,118 13,172 27,54 74,94 131,113l1761 657c1,0 1,0 1,0zm382 230c-126,0 -253,-17 -377,-53 -13,1 -25,-1 -37,-5l-1788 -667c-98,-32 -179,-103 -227,-197 -48,-95 -55,-202 -22,-303 33,-101 104,-182 198,-230 95,-48 202,-56 303,-22l568 188 -1179 -1768c-59,-89 -81,-196 -59,-301 21,-105 81,-195 171,-255 89,-59 196,-80 301,-60 105,21 195,81 255,171l638 956 1126 -540c276,-125 597,-33 764,218l483 725c421,631 264,1486 -350,1905 -230,157 -496,238 -766,238z"/>
   <polyline class="fil0 str1" points="573,2985 2483,2309 4322,2985 "/>
   <path class="fil2" d="M2120 5639l0 -1347c0,-31 -13,-59 -33,-79l0 0c-20,-20 -48,-33 -79,-33l-474 0c-31,0 -59,13 -79,33l0 0c-20,20 -33,48 -33,79l0 1347 -162 0 0 -1347c0,-75 31,-143 80,-193l0 0 0 0c50,-50 118,-80 193,-80l474 0c75,0 144,31 193,80l0 0c50,50 81,118 81,193l0 1347 -162 0z"/>
  </g>
 </g>
</svg>
