<?xml version="1.0" encoding="UTF-8"?>
<!DOCTYPE svg PUBLIC "-//W3C//DTD SVG 1.1//EN" "http://www.w3.org/Graphics/SVG/1.1/DTD/svg11.dtd">
<!-- Creator: CorelDRAW X6 -->
<svg xmlns="http://www.w3.org/2000/svg" xml:space="preserve" width="68mm" height="90mm" version="1.1" style="shape-rendering:geometricPrecision; text-rendering:geometricPrecision; image-rendering:optimizeQuality; fill-rule:evenodd; clip-rule:evenodd"
viewBox="0 0 6800 9000"
 xmlns:xlink="http://www.w3.org/1999/xlink">
 <defs>
  <style type="text/css">
   <![CDATA[
    .fil0 {fill:#2B2A29}
   ]]>
  </style>
 </defs>
 <g id="Слой_x0020_1">
  <metadata id="CorelCorpID_0Corel-Layer"/>
  <g id="_1076151392">
   <path class="fil0" d="M4942 8991l-4563 0c-182,0 -330,-148 -330,-330l0 -6867c0,-182 148,-330 330,-330l6040 0c182,0 330,148 330,330l0 5390c0,58 -47,105 -105,105 -58,0 -105,-47 -105,-105l0 -5390c0,-66 -54,-120 -120,-120l-6040 0c-66,0 -120,54 -120,120l0 6867c0,66 54,120 120,120l4458 0 0 -1598c0,-58 47,-105 105,-105 58,0 105,47 105,105l0 1703c0,58 -47,105 -105,105z"/>
   <path class="fil0" d="M4943 8991c-14,0 -27,-3 -40,-8 -39,-16 -65,-54 -65,-97l0 -1702c0,-58 47,-105 105,-105l801 0c58,0 105,47 105,105 0,58 -47,105 -105,105l-696 0 0 1344 1523 -1523c41,-41 107,-41 148,0 41,41 41,107 0,148l-1702 1702c-20,20 -47,31 -74,31z"/>
   <path class="fil0" d="M6645 847l-2035 0c-34,0 -66,-17 -86,-45 -257,-365 -677,-584 -1124,-584 -447,0 -867,218 -1124,584 -20,28 -52,45 -86,45l-2035 0c-58,0 -105,-47 -105,-105 0,-58 47,-105 105,-105l1982 0c298,-394 766,-628 1263,-628 497,0 965,234 1263,628l1982 0c58,0 105,47 105,105 0,58 -47,105 -105,105z"/>
   <path class="fil0" d="M1651 4010c-27,0 -53,-10 -74,-31l-335 -335c-41,-41 -41,-107 0,-148 41,-41 107,-41 148,0l261 261 691 -691c41,-41 107,-41 148,0 41,41 41,107 0,148l-765 765c-20,20 -47,31 -74,31z"/>
   <path class="fil0" d="M1651 7265c-27,0 -53,-10 -74,-31l-335 -335c-41,-41 -41,-107 0,-148 41,-41 107,-41 148,0l261 261 691 -691c41,-41 107,-41 148,0 41,41 41,107 0,148l-765 765c-20,20 -47,31 -74,31z"/>
   <path class="fil0" d="M1651 5638c-27,0 -53,-10 -74,-31l-335 -335c-41,-41 -41,-107 0,-148 41,-41 107,-41 148,0l261 261 691 -691c41,-41 107,-41 148,0 41,41 41,107 0,148l-765 765c-20,20 -47,31 -74,31z"/>
   <path class="fil0" d="M5352 5255l-2170 0c-58,0 -105,-47 -105,-105 0,-58 47,-105 105,-105l2170 0c58,0 105,47 105,105 0,58 -47,105 -105,105z"/>
   <path class="fil0" d="M5352 3628l-711 0c-58,0 -105,-47 -105,-105 0,-58 47,-105 105,-105l711 0c58,0 105,47 105,105 0,58 -47,105 -105,105z"/>
   <path class="fil0" d="M3924 3628l-742 0c-58,0 -105,-47 -105,-105 0,-58 47,-105 105,-105l742 0c58,0 105,47 105,105 0,58 -47,105 -105,105z"/>
   <path class="fil0" d="M3979 6883l-796 0c-58,0 -105,-47 -105,-105 0,-58 47,-105 105,-105l797 0c58,0 105,47 105,105 0,58 -47,105 -105,105z"/>
  </g>
 </g>
</svg>
