<?xml version="1.0" encoding="UTF-8"?>
<!DOCTYPE svg PUBLIC "-//W3C//DTD SVG 1.1//EN" "http://www.w3.org/Graphics/SVG/1.1/DTD/svg11.dtd">
<!-- Creator: CorelDRAW X6 -->
<svg xmlns="http://www.w3.org/2000/svg" xml:space="preserve" width="68mm" height="90mm" version="1.1" style="shape-rendering:geometricPrecision; text-rendering:geometricPrecision; image-rendering:optimizeQuality; fill-rule:evenodd; clip-rule:evenodd"
viewBox="0 0 6800 9000"
 xmlns:xlink="http://www.w3.org/1999/xlink">
 <defs>
  <style type="text/css">
   <![CDATA[
    .fil0 {fill:#2B2A29}
   ]]>
  </style>
 </defs>
 <g id="Слой_x0020_1">
  <metadata id="CorelCorpID_0Corel-Layer"/>
  <g id="_803934384">
   <path class="fil0" d="M1600 3387c-19,0 -38,-7 -52,-20l-451 -398c-16,-14 -25,-33 -27,-54 -1,-21 5,-41 20,-57 15,-17 37,-27 59,-27 19,0 38,7 52,20l388 343 790 -997c15,-19 38,-30 62,-30 18,0 35,6 49,17 17,13 27,32 29,53 2,21 -3,42 -16,58l-841 1063c-14,17 -34,28 -55,30 -2,0 -5,0 -7,0z"/>
   <path class="fil0" d="M559 1898c-38,0 -69,31 -69,70l0 1723c0,38 31,69 69,69l1920 0c16,0 31,5 44,13l579 388 0 -2194c0,-38 -31,-70 -69,-70l-2474 0zm2622 2491c-16,0 -31,-5 -44,-13l-682 -457 -1896 0c-125,0 -227,-102 -227,-227l0 -1723c0,-125 102,-228 227,-228l2474 0c125,0 227,102 227,228l0 2342c0,29 -16,56 -42,70 -11,6 -24,9 -37,9z"/>
   <path class="fil0" d="M270 4546c-39,76 -93,233 -44,338l966 1934 242 -110 -1130 -2230 -35 68zm1342 2556l2344 0 9 -5c57,-33 130,-166 162,-243l23 -54 -2539 0 0 302zm-79 158c-43,0 -79,-35 -79,-79l0 -309 -265 120c-10,5 -21,7 -33,7 -30,0 -57,-17 -71,-44l-1001 -2003c-102,-217 45,-567 186,-638 10,-5 22,-8 34,-8l47 -1c27,0 52,17 66,44l1162 2294 2663 0c44,0 79,35 79,79 0,147 -178,539 -367,539l-2422 0z"/>
   <path class="fil0" d="M4887 2314c-84,0 -171,12 -257,35 -228,61 -414,191 -523,366 -117,187 -144,417 -77,665 128,482 568,889 961,889 50,0 99,-6 146,-19 460,-123 662,-802 528,-1305 -105,-394 -395,-630 -777,-630zm103 2112c-466,0 -966,-451 -1114,-1006 -77,-291 -44,-564 96,-789 131,-209 350,-364 617,-435 100,-27 200,-40 298,-40 451,0 807,286 930,747 156,586 -85,1351 -640,1499 -60,16 -123,24 -187,24z"/>
   <path class="fil0" d="M4587 5118c-3,0 -6,0 -9,0 -43,-5 -75,-44 -70,-87 23,-211 44,-314 59,-363l142 81c-10,46 -26,136 -44,299 -4,40 -38,70 -78,70z"/>
   <path class="fil0" d="M6664 7193c-22,-1 -41,-9 -56,-25 -14,-15 -22,-35 -21,-56 17,-572 -8,-1073 -74,-1489l-1 -8 -8 -50 -2 -9c-17,-102 -38,-198 -61,-293 -67,-273 -157,-500 -267,-674 -54,-86 -148,-139 -244,-139 -17,0 -35,2 -52,5l-61 13c-101,21 -189,80 -245,167 -57,86 -76,190 -55,291l86 414c5,23 -1,47 -16,66 -15,18 -37,29 -61,29l-2008 0c-227,0 -412,185 -412,412l0 10c0,227 185,413 412,413l1996 0c140,0 280,-15 417,-43l160 -34c56,-12 109,-32 158,-60 12,-7 26,-11 40,-11 28,0 54,15 68,39 11,18 14,40 8,60 -5,20 -19,37 -37,48 -64,37 -132,63 -205,78l-160 34c-148,31 -299,47 -450,47l-818 0 5 44c24,206 55,418 91,630 7,43 -22,84 -65,91 -5,1 -9,1 -13,1 -39,0 -71,-28 -78,-66 -38,-225 -70,-449 -96,-666l-4 -35 -1019 0c-314,0 -570,-256 -570,-571l0 -10c0,-314 256,-570 570,-570l1911 0 -67 -319c-30,-142 -3,-288 77,-410 80,-122 202,-205 345,-235l59 -12c27,-5 56,-8 84,-8 152,0 297,81 379,212 119,188 215,430 286,720 25,98 45,198 64,305l3 16c2,9 7,44 7,44 1,6 2,10 2,14 67,427 93,936 75,1514 -1,43 -36,77 -79,77l-2 0z"/>
  </g>
 </g>
</svg>
