<?xml version="1.0" encoding="UTF-8"?>
<!DOCTYPE svg PUBLIC "-//W3C//DTD SVG 1.1//EN" "http://www.w3.org/Graphics/SVG/1.1/DTD/svg11.dtd">
<!-- Creator: CorelDRAW X6 -->
<svg xmlns="http://www.w3.org/2000/svg" xml:space="preserve" width="68mm" height="90mm" version="1.1" style="shape-rendering:geometricPrecision; text-rendering:geometricPrecision; image-rendering:optimizeQuality; fill-rule:evenodd; clip-rule:evenodd"
viewBox="0 0 6800 9000"
 xmlns:xlink="http://www.w3.org/1999/xlink">
 <defs>
  <style type="text/css">
   <![CDATA[
    .fil0 {fill:#2B2A29}
   ]]>
  </style>
 </defs>
 <g id="Слой_x0020_1">
  <metadata id="CorelCorpID_0Corel-Layer"/>
  <g id="_805183184">
   <path class="fil0" d="M4129 6775c-45,0 -81,-36 -81,-81l0 -687c0,-33 21,-63 52,-75 740,-290 1218,-990 1218,-1785 0,-1057 -860,-1917 -1917,-1917 -1057,0 -1917,860 -1917,1917 0,794 478,1495 1218,1785 31,12 52,42 52,75l0 687c0,45 -36,81 -81,81 -45,0 -81,-36 -81,-81l0 -633c-773,-326 -1269,-1072 -1269,-1915 0,-1146 933,-2079 2079,-2079 1146,0 2079,932 2079,2079 0,843 -496,1588 -1269,1915l0 633c0,45 -36,81 -81,81z"/>
   <path class="fil0" d="M2759 7540c39,283 283,502 577,502l128 0c294,0 538,-219 577,-502l-1283 0zm706 664l-128 0c-411,0 -745,-334 -745,-745 0,-45 36,-81 81,-81l1456 0c45,0 81,36 81,81 0,411 -334,745 -745,745z"/>
   <path class="fil0" d="M2742 6800c-159,0 -289,129 -289,289 0,159 129,289 289,289l1318 0c159,0 289,-130 289,-289 0,-159 -129,-289 -289,-289l-1318 0zm1318 740l-1318 0c-249,0 -451,-202 -451,-451 0,-249 202,-451 451,-451l1318 0c249,0 451,202 451,451 0,249 -202,451 -451,451z"/>
   <path class="fil0" d="M3668 5603c-4,0 -8,0 -11,-1 -44,-6 -75,-47 -69,-92l138 -985c-92,70 -206,112 -326,112 -120,0 -234,-42 -326,-112l138 985c6,44 -25,85 -69,92 -45,6 -85,-25 -92,-69l-184 -1306c-11,-42 -18,-86 -18,-130 0,-43 33,-78 75,-81 43,-2 80,28 86,70l16 111c47,157 201,279 372,279 171,0 325,-122 372,-279l15 -111c6,-42 44,-72 86,-70 42,3 75,38 75,81 0,44 -6,88 -18,130l-184 1306c-6,41 -41,70 -80,70z"/>
   <path class="fil0" d="M3400 1650c-45,0 -81,-36 -81,-81l0 -691c0,-45 36,-81 81,-81 45,0 81,36 81,81l0 691c0,45 -36,81 -81,81z"/>
   <path class="fil0" d="M1578 2405c-21,0 -42,-8 -57,-24l-489 -490c-32,-32 -32,-83 0,-115 32,-32 83,-32 115,0l489 489c32,32 32,83 0,115 -16,16 -36,24 -57,24z"/>
   <path class="fil0" d="M6669 4227l-691 0c-45,0 -81,-36 -81,-81 0,-45 36,-81 81,-81l692 0c45,0 81,36 81,81 0,45 -36,81 -81,81z"/>
   <path class="fil0" d="M823 4227l-692 0c-45,0 -81,-36 -81,-81 0,-45 36,-81 81,-81l692 0c45,0 81,36 81,81 0,45 -36,81 -81,81z"/>
   <path class="fil0" d="M5223 2405c-21,0 -42,-8 -57,-24 -32,-32 -32,-83 0,-115l488 -489c32,-32 83,-32 115,0 32,32 32,83 0,115l-489 489c-16,16 -37,24 -57,24z"/>
  </g>
 </g>
</svg>
