<?xml version="1.0" encoding="UTF-8"?>
<!DOCTYPE svg PUBLIC "-//W3C//DTD SVG 1.1//EN" "http://www.w3.org/Graphics/SVG/1.1/DTD/svg11.dtd">
<!-- Creator: CorelDRAW X6 -->
<svg xmlns="http://www.w3.org/2000/svg" xml:space="preserve" width="68mm" height="90mm" version="1.1" style="shape-rendering:geometricPrecision; text-rendering:geometricPrecision; image-rendering:optimizeQuality; fill-rule:evenodd; clip-rule:evenodd"
viewBox="0 0 6800 9000"
 xmlns:xlink="http://www.w3.org/1999/xlink">
 <defs>
  <style type="text/css">
   <![CDATA[
    .str0 {stroke:#2B2A29;stroke-width:130}
    .fil2 {fill:none}
    .fil1 {fill:none;fill-rule:nonzero}
    .fil0 {fill:#2B2A29}
   ]]>
  </style>
 </defs>
 <g id="Слой_x0020_1">
  <metadata id="CorelCorpID_0Corel-Layer"/>
  <g id="_198742608">
   <path class="fil0" d="M5723 3607c-24,0 -48,-15 -57,-39 -379,-922 -1269,-1518 -2266,-1518 -558,0 -1104,193 -1537,543 -27,22 -66,17 -88,-9 -22,-27 -17,-66 9,-88 455,-368 1029,-571 1615,-571 1048,0 1983,626 2381,1595 13,32 -2,68 -34,81 -8,3 -16,5 -24,5z"/>
   <path class="fil0" d="M2696 2829c-25,0 -48,-15 -58,-39 -13,-32 3,-68 35,-81 350,-140 733,-176 1107,-103 94,18 188,44 279,75 32,11 49,47 38,79 -11,32 -47,50 -79,38 -85,-30 -173,-53 -261,-71 -351,-68 -710,-35 -1037,96 -8,3 -15,4 -23,4z"/>
   <path class="fil0" d="M4870 3376c-18,0 -36,-8 -48,-22 -107,-128 -232,-240 -369,-334 -28,-19 -36,-58 -16,-87 19,-28 58,-36 87,-16 147,101 280,221 394,357 22,26 19,66 -7,88 -12,10 -26,15 -40,15z"/>
   <path class="fil0" d="M3400 7074c-1046,0 -1980,-625 -2379,-1592 -13,-32 2,-68 34,-81 32,-13 68,2 81,34 380,920 1269,1515 2264,1515 486,0 955,-142 1357,-410 29,-19 67,-11 86,17 19,29 11,67 -17,86 -422,282 -915,431 -1426,431z"/>
   <path class="fil0" d="M3404 6530c-127,0 -254,-12 -380,-37 -490,-95 -923,-368 -1217,-768 -20,-28 -14,-67 13,-87 28,-20 67,-14 87,13 276,375 681,631 1140,720 288,56 588,43 866,-37 33,-10 68,10 77,43 10,33 -10,67 -43,77 -176,51 -361,77 -545,77z"/>
   <path class="fil0" d="M1160 2790c-241,0 -438,196 -438,437 0,241 196,437 438,437 241,0 437,-196 437,-437 0,-241 -196,-437 -437,-437zm0 999c-310,0 -562,-252 -562,-562 0,-310 252,-562 562,-562 310,0 562,252 562,562 0,310 -252,562 -562,562z"/>
   <path class="fil0" d="M1160 4193c-580,0 -985,198 -985,376 0,178 405,376 985,376 581,0 985,-198 985,-376 0,-178 -405,-376 -985,-376zm0 876c-622,0 -1110,-220 -1110,-500 0,-280 487,-500 1109,-500 622,0 1109,220 1109,500 0,281 -487,500 -1109,500z"/>
   <path class="fil0" d="M5641 4056c-241,0 -437,196 -437,437 0,241 196,438 437,438 241,0 438,-196 438,-438 0,-241 -196,-437 -437,-437zm0 999c-310,0 -562,-252 -562,-562 0,-310 252,-562 562,-562 310,0 562,252 562,562 0,310 -252,562 -562,562z"/>
   <path class="fil0" d="M5641 5459c-580,0 -985,198 -985,376 0,178 405,376 985,376 581,0 985,-198 985,-376 0,-178 -405,-376 -985,-376zm0 876c-622,0 -1110,-220 -1110,-500 0,-280 487,-500 1109,-500 622,0 1109,220 1109,500 0,280 -487,500 -1109,500z"/>
   <path class="fil1 str0" d="M3438 4180c103,-175 206,-263 412,-263 228,0 412,157 412,350 0,350 -412,700 -825,1050 -412,-350 -825,-700 -825,-1050 0,-193 185,-350 412,-350 206,0 309,88 412,263z"/>
   <path class="fil2 str0" d="M3910 3921c-424,665 -824,883 -1201,654"/>
   <path class="fil2 str0" d="M4237 4174c-468,689 -910,914 -1326,677"/>
   <path class="fil2 str0" d="M3301 4006c-89,409 -343,437 -679,386"/>
  </g>
 </g>
</svg>
