<?xml version="1.0" encoding="UTF-8"?>
<!DOCTYPE svg PUBLIC "-//W3C//DTD SVG 1.1//EN" "http://www.w3.org/Graphics/SVG/1.1/DTD/svg11.dtd">
<!-- Creator: CorelDRAW X6 -->
<svg xmlns="http://www.w3.org/2000/svg" xml:space="preserve" width="68mm" height="90mm" version="1.1" style="shape-rendering:geometricPrecision; text-rendering:geometricPrecision; image-rendering:optimizeQuality; fill-rule:evenodd; clip-rule:evenodd"
viewBox="0 0 6800 9000"
 xmlns:xlink="http://www.w3.org/1999/xlink">
 <defs>
  <style type="text/css">
   <![CDATA[
    .fil0 {fill:#43525D}
   ]]>
  </style>
 </defs>
 <g id="Слой_x0020_1">
  <metadata id="CorelCorpID_0Corel-Layer"/>
  <g id="_802704160">
   <path class="fil0" d="M2296 7349c-41,0 -75,-33 -75,-75 0,-147 -62,-288 -171,-387 -96,-88 -221,-136 -352,-136 -68,0 -133,12 -194,37 -38,16 -82,-3 -97,-41 -15,-38 3,-82 41,-97 79,-32 163,-48 250,-48 168,0 329,62 452,175 140,127 220,309 220,498 0,41 -33,75 -75,75z"/>
   <path class="fil0" d="M1698 7947c-371,0 -673,-302 -673,-672 0,-54 6,-107 19,-159 10,-40 50,-64 91,-55 40,10 65,50 55,91 -10,40 -15,82 -15,123 0,288 235,523 524,523 41,0 75,33 75,75 0,41 -34,75 -75,75z"/>
   <path class="fil0" d="M2875 7947l-2011 0c-449,0 -814,-365 -814,-814 0,-449 365,-814 814,-814 270,0 522,134 674,357 91,135 139,293 139,456 0,41 -33,75 -75,75 -41,0 -75,-33 -75,-75 0,-134 -39,-262 -114,-373 -124,-183 -330,-292 -550,-292 -366,0 -664,298 -664,664 0,366 298,664 664,664l2011 0c41,0 75,33 75,75 0,41 -34,75 -75,75z"/>
   <path class="fil0" d="M4505 7349c-41,0 -75,-33 -75,-75 0,-189 80,-371 220,-498 124,-113 284,-175 452,-175 87,0 171,16 250,48 38,16 57,59 41,97 -15,38 -59,57 -97,41 -61,-25 -126,-37 -193,-37 -131,0 -256,48 -352,136 -109,99 -171,240 -171,387 0,41 -33,75 -75,75z"/>
   <path class="fil0" d="M5102 7947c-41,0 -75,-33 -75,-75 0,-41 33,-75 75,-75 288,0 523,-235 523,-523 0,-42 -5,-83 -15,-123 -10,-40 15,-81 55,-91 40,-10 81,15 91,55 13,52 19,105 19,159 0,371 -302,672 -673,672z"/>
   <path class="fil0" d="M5936 7947l-2011 0c-41,0 -75,-33 -75,-75 0,-41 34,-75 75,-75l2011 0c366,0 664,-298 664,-664 0,-366 -298,-664 -664,-664 -221,0 -426,109 -550,292 -74,110 -114,239 -114,372 0,41 -33,75 -75,75 -41,0 -75,-33 -75,-75 0,-163 48,-321 139,-456 152,-224 404,-357 674,-357 449,0 814,365 814,814 0,449 -365,814 -814,814z"/>
   <path class="fil0" d="M1125 5787l1160 0 -110 -1760c-496,410 -908,857 -1049,1760zm1239 150l-1326 0c-21,0 -42,-9 -56,-26 -14,-16 -21,-38 -18,-59 145,-1085 642,-1563 1229,-2033 22,-17 52,-21 77,-10 26,11 43,36 45,64l124 1985c1,21 -6,41 -20,56 -14,15 -34,24 -55,24z"/>
   <path class="fil0" d="M2393 5135l2015 0 92 -1482c0,-921 -320,-1628 -1100,-2419 -781,791 -1100,1497 -1100,2423l93 1477zm2085 150l-2155 0c-39,0 -72,-31 -75,-70l-97 -1552c0,-995 347,-1743 1197,-2587 29,-29 76,-29 105,0 850,844 1197,1592 1197,2582l-97 1557c-3,39 -35,70 -75,70z"/>
   <path class="fil0" d="M4517 5787l1160 0c-142,-904 -554,-1350 -1050,-1760l-110 1760zm1246 150l-1326 0c-21,0 -40,-9 -55,-24 -14,-15 -21,-35 -20,-56l124 -1985c2,-28 19,-52 44,-64 26,-11 55,-7 77,10 586,470 1083,948 1229,2033 3,21 -4,43 -18,59 -14,16 -35,26 -56,26z"/>
   <path class="fil0" d="M3400 6838c-7,0 -15,-1 -22,-3 -110,-35 -351,-288 -351,-817 0,-47 4,-93 10,-137 7,-41 45,-69 86,-62 41,6 69,45 62,85 -6,36 -8,75 -8,114 0,394 153,606 224,661 71,-55 223,-267 223,-661 0,-42 -3,-81 -8,-114 -6,-41 21,-79 62,-86 41,-6 79,21 86,62 7,41 10,88 10,138 0,528 -240,782 -350,817 -7,2 -15,3 -23,3z"/>
   <path class="fil0" d="M3400 2636c-186,0 -337,151 -337,337 0,186 151,337 337,337 186,0 337,-151 337,-337 0,-186 -151,-337 -337,-337zm0 824c-268,0 -487,-218 -487,-487 0,-268 218,-487 487,-487 268,0 487,218 487,487 0,268 -218,487 -487,487z"/>
  </g>
 </g>
</svg>
